<svg width="41" height="16" viewBox="0 0 41 16" fill="none" xmlns="http://www.w3.org/2000/svg">
<path d="M40.2071 8.70711C40.5976 8.31658 40.5976 7.68342 40.2071 7.29289L33.8431 0.928932C33.4526 0.538408 32.8195 0.538408 32.4289 0.928932C32.0384 1.31946 32.0384 1.95262 32.4289 2.34315L38.0858 8L32.4289 13.6569C32.0384 14.0474 32.0384 14.6805 32.4289 15.0711C32.8195 15.4616 33.4526 15.4616 33.8431 15.0711L40.2071 8.70711ZM-4.82161e-09 9L23.5 9L23.5 7L4.82161e-09 7L-4.82161e-09 9ZM23.5 9L39.5 9L39.5 7L23.5 7L23.5 9Z" fill="#F8FAFB"/>
</svg>
