<svg width="25" height="27" viewBox="0 0 25 27" fill="none" xmlns="http://www.w3.org/2000/svg">
<path d="M1.78571 23.9149C1.78571 24.5711 2.06792 25.2003 2.57025 25.6643C3.07258 26.1282 3.75388 26.3889 4.46429 26.3889H20.5357C21.2461 26.3889 21.9274 26.1282 22.4298 25.6643C22.9321 25.2003 23.2143 24.5711 23.2143 23.9149V6.59723H1.78571V23.9149ZM16.9643 10.7205C16.9643 10.5018 17.0584 10.292 17.2258 10.1374C17.3932 9.98272 17.6203 9.89584 17.8571 9.89584C18.0939 9.89584 18.321 9.98272 18.4885 10.1374C18.6559 10.292 18.75 10.5018 18.75 10.7205V22.2656C18.75 22.4843 18.6559 22.6941 18.4885 22.8487C18.321 23.0034 18.0939 23.0903 17.8571 23.0903C17.6203 23.0903 17.3932 23.0034 17.2258 22.8487C17.0584 22.6941 16.9643 22.4843 16.9643 22.2656V10.7205ZM11.6071 10.7205C11.6071 10.5018 11.7012 10.292 11.8687 10.1374C12.0361 9.98272 12.2632 9.89584 12.5 9.89584C12.7368 9.89584 12.9639 9.98272 13.1313 10.1374C13.2988 10.292 13.3929 10.5018 13.3929 10.7205V22.2656C13.3929 22.4843 13.2988 22.6941 13.1313 22.8487C12.9639 23.0034 12.7368 23.0903 12.5 23.0903C12.2632 23.0903 12.0361 23.0034 11.8687 22.8487C11.7012 22.6941 11.6071 22.4843 11.6071 22.2656V10.7205ZM6.25 10.7205C6.25 10.5018 6.34407 10.292 6.51151 10.1374C6.67896 9.98272 6.90606 9.89584 7.14286 9.89584C7.37966 9.89584 7.60676 9.98272 7.7742 10.1374C7.94165 10.292 8.03571 10.5018 8.03571 10.7205V22.2656C8.03571 22.4843 7.94165 22.6941 7.7742 22.8487C7.60676 23.0034 7.37966 23.0903 7.14286 23.0903C6.90606 23.0903 6.67896 23.0034 6.51151 22.8487C6.34407 22.6941 6.25 22.4843 6.25 22.2656V10.7205ZM24.1071 1.64931H17.4107L16.8862 0.685501C16.775 0.479449 16.6039 0.306121 16.3919 0.185019C16.18 0.0639166 15.9356 -0.000156064 15.6864 9.0365e-06H9.30804C9.05936 -0.000873885 8.81545 0.0629599 8.60424 0.184197C8.39304 0.305434 8.22308 0.479171 8.11384 0.685501L7.58929 1.64931H0.892857C0.656057 1.64931 0.428955 1.7362 0.261512 1.89085C0.0940686 2.0455 0 2.25525 0 2.47397L0 4.12327C0 4.34198 0.0940686 4.55174 0.261512 4.70639C0.428955 4.86104 0.656057 4.94792 0.892857 4.94792H24.1071C24.3439 4.94792 24.571 4.86104 24.7385 4.70639C24.9059 4.55174 25 4.34198 25 4.12327V2.47397C25 2.25525 24.9059 2.0455 24.7385 1.89085C24.571 1.7362 24.3439 1.64931 24.1071 1.64931Z" fill="#E0475F"/>
</svg>
